# xmcd
#
# Track frame offsets:
#	180
#	70318
#	132820
#	172302
#	231001
#	281081
#
# Disc length: 4315 seconds
#
# Revision: 2
# Processed by: cddbd v1.5.2PL0 Copyright (c) Steve Scherf et al.
# Submitted via: audiograbber 1.83.01
#
DISCID=5810d906
DTITLE=Mick Pluto - Mick Pluto Box - Pluto Move
DYEAR=2012
DGENRE=Electronic
TTITLE0=Pluto Movement
TTITLE1=Sillicone Sillytone
TTITLE2=Run
TTITLE3=Popcorn
TTITLE4=Bela
TTITLE5=Molecule
EXTD=
EXTT0=
EXTT1=
EXTT2=
EXTT3=
EXTT4=
EXTT5=
PLAYORDER=
